<?xml version="1.0" encoding="utf-8"?><svg xmlns="http://www.w3.org/2000/svg" xmlns:xlink="http://www.w3.org/1999/xlink" width="3000" height="932" preserveAspectRatio="xMidYMid" viewBox="0 0 3000 932" style="z-index:1;margin-right:-2px;display:block;background-repeat-y:initial;background-repeat-x:initial;background-color:rgb(221, 221, 221);animation-play-state:paused" ><g transform="translate(1500,466) scale(1,1) translate(-1500,-466)" style="transform:matrix(1, 0, 0, 1, 0, 0);animation-play-state:paused" ><defs style="animation-play-state:paused" ><linearGradient id="lg-0.05716809402064649" x1="0" x2="0" y1="0" y2="1" style="animation-play-state:paused" ><stop stop-color="#ffc400" offset="0" style="animation-play-state:paused" ></stop>

  
<stop stop-color="#ffc400" offset="1" style="animation-play-state:paused" ></stop></linearGradient></defs>


<rect x="0" y="0" width="3000" height="932" fill="url(#lg-0.05716809402064649)" style="animation-play-state:paused" ></rect>
<circle cx="0" cy="684.5912319734639" r="57.840640022113476" fill="#ffc400" transform="matrix(1,0,0,1,0,0)" style="transform:matrix(1, 0, 0, 1, 0, 0);animation-play-state:paused" ></circle>
<circle cx="57.840640022113476" cy="643.0832953260783" r="96.1376978786367" fill="#ffc400" transform="matrix(1,0,0,1,-0.005429734475910664,0)" style="transform:matrix(1, 0, 0, 1, -0.00542973, 0);animation-play-state:paused" ></circle>
<circle cx="153.97833790075018" cy="680.0871229355225" r="68.64012588512442" fill="#ffc400" transform="matrix(1,0,0,1,-0.02211761102080345,0)" style="transform:matrix(1, 0, 0, 1, -0.0221176, 0);animation-play-state:paused" ></circle>
<circle cx="222.6184637858746" cy="654.1554974968997" r="97.70426813806276" fill="#ffc400" transform="matrix(1,0,0,1,-0.050691746175289154,0)" style="transform:matrix(1, 0, 0, 1, -0.0506917, 0);animation-play-state:paused" ></circle>
<circle cx="320.32273192393734" cy="632.5780214498902" r="128.660166042846" fill="#ffc400" transform="matrix(1,0,0,1,-0.09182151407003403,0)" style="transform:matrix(1, 0, 0, 1, -0.0918215, 0);animation-play-state:paused" ></circle>
<circle cx="448.9828979667833" cy="671.6436607704304" r="97.94838146573605" fill="#ffc400" transform="matrix(1,0,0,1,-0.14621859788894653,0)" style="transform:matrix(1, 0, 0, 1, -0.146219, 0);animation-play-state:paused" ></circle>
<circle cx="546.9312794325193" cy="691.165260000014" r="82.41108254315155" fill="#ffc400" transform="matrix(1,0,0,1,-0.21463680267333984,0)" style="transform:matrix(1, 0, 0, 1, -0.214637, 0);animation-play-state:paused" ></circle>
<circle cx="629.3423619756709" cy="710.9673882469507" r="61.781763970246736" fill="#ffc400" transform="matrix(1,0,0,1,-0.29787102341651917,0)" style="transform:matrix(1, 0, 0, 1, -0.297871, 0);animation-play-state:paused" ></circle>
<circle cx="691.1241259459176" cy="724.9050583020841" r="44.96200009046543" fill="#ffc400" transform="matrix(1,0,0,1,-0.39675408601760864,0)" style="transform:matrix(1, 0, 0, 1, -0.396754, 0);animation-play-state:paused" ></circle>
<circle cx="736.086126036383" cy="715.2862343412295" r="63.347726390119035" fill="#ffc400" transform="matrix(1,0,0,1,-0.5121509432792664,0)" style="transform:matrix(1, 0, 0, 1, -0.512151, 0);animation-play-state:paused" ></circle>
<circle cx="799.4338524265021" cy="693.931444804166" r="107.17859299205605" fill="#ffc400" transform="matrix(1,0,0,1,-0.6449490785598755,0)" style="transform:matrix(1, 0, 0, 1, -0.644949, 0);animation-play-state:paused" ></circle>
<circle cx="906.6124454185581" cy="703.3218255175411" r="106.7560612182998" fill="#ffc400" transform="matrix(1,0,0,1,-0.7960450649261475,0)" style="transform:matrix(1, 0, 0, 1, -0.796045, 0);animation-play-state:paused" ></circle>
<circle cx="1013.3685066368579" cy="721.108301739123" r="84.48820799071248" fill="#ffc400" transform="matrix(1,0,0,1,-0.9663238525390625,0)" style="transform:matrix(1, 0, 0, 1, -0.966324, 0);animation-play-state:paused" ></circle>
<circle cx="1097.8567146275705" cy="721.4074877023359" r="101.30876693452632" fill="#ffc400" transform="matrix(1,0,0,1,-1.156630039215088,0)" style="transform:matrix(1, 0, 0, 1, -1.15663, 0);animation-play-state:paused" ></circle>
<circle cx="1199.1654815620968" cy="728.826239305138" r="104.5997016298942" fill="#ffc400" transform="matrix(1,0,0,1,-1.3677335977554321,0)" style="transform:matrix(1, 0, 0, 1, -1.36773, 0);animation-play-state:paused" ></circle>
<circle cx="1303.7651831919911" cy="745.393048847335" r="54.82558658975034" fill="#ffc400" transform="matrix(1,0,0,1,-1.600266695022583,0)" style="transform:matrix(1, 0, 0, 1, -1.60027, 0);animation-play-state:paused" ></circle>
<circle cx="1358.5907697817415" cy="748.8809400368518" r="45.250405111879054" fill="#ffc400" transform="matrix(1,0,0,1,-1.8546777963638306,0)" style="transform:matrix(1, 0, 0, 1, -1.85468, 0);animation-play-state:paused" ></circle>
<circle cx="1403.8411748936205" cy="747.7106185712631" r="81.75772506812271" fill="#ffc400" transform="matrix(1,0,0,1,-2.1311428546905518,0)" style="transform:matrix(1, 0, 0, 1, -2.13114, 0);animation-play-state:paused" ></circle>
<circle cx="1485.5988999617432" cy="753.1318318216106" r="75.35606447451454" fill="#ffc400" transform="matrix(1,0,0,1,-2.4294791221618652,0)" style="transform:matrix(1, 0, 0, 1, -2.42948, 0);animation-play-state:paused" ></circle>
<circle cx="1560.9549644362578" cy="748.828687690804" r="106.04780834963361" fill="#ffc400" transform="matrix(1,0,0,1,-2.7490451335906982,0)" style="transform:matrix(1, 0, 0, 1, -2.74905, 0);animation-play-state:paused" ></circle>
<circle cx="1667.0027727858915" cy="743.4210715481148" r="79.18228149307478" fill="#ffc400" transform="matrix(1,0,0,1,-3.0886473655700684,0)" style="transform:matrix(1, 0, 0, 1, -3.08865, 0);animation-play-state:paused" ></circle>
<circle cx="1746.1850542789662" cy="736.2657969935834" r="90.04508345539628" fill="#ffc400" transform="matrix(1,0,0,1,-3.446458578109741,0)" style="transform:matrix(1, 0, 0, 1, -3.44646, 0);animation-play-state:paused" ></circle>
<circle cx="1836.2301377343624" cy="727.9196704096822" r="96.95862544497169" fill="#ffc400" transform="matrix(1,0,0,1,-3.8199691772460938,0)" style="transform:matrix(1, 0, 0, 1, -3.81997, 0);animation-play-state:paused" ></circle>
<circle cx="1933.188763179334" cy="717.47700259851" r="105.38996075704407" fill="#ffc400" transform="matrix(1,0,0,1,-4.205996036529541,0)" style="transform:matrix(1, 0, 0, 1, -4.206, 0);animation-play-state:paused" ></circle>
<circle cx="2038.578723936378" cy="702.7756549363331" r="118.88778461502582" fill="#ffc400" transform="matrix(1,0,0,1,-4.600752353668213,0)" style="transform:matrix(1, 0, 0, 1, -4.60075, 0);animation-play-state:paused" ></circle>
<circle cx="2157.466508551404" cy="703.9376689472293" r="95.18038257772447" fill="#ffc400" transform="matrix(1,0,0,1,-4.999995708465576,0)" style="transform:matrix(1, 0, 0, 1, -5, 0);animation-play-state:paused" ></circle>
<circle cx="2252.6468911291286" cy="720.5093638924465" r="55.621428358839324" fill="#ffc400" transform="matrix(1,0,0,1,-5.399239540100098,0)" style="transform:matrix(1, 0, 0, 1, -5.39924, 0);animation-play-state:paused" ></circle>
<circle cx="2308.268319487968" cy="696.8478168813333" r="88.38677352044454" fill="#ffc400" transform="matrix(1,0,0,1,-5.79400110244751,0)" style="transform:matrix(1, 0, 0, 1, -5.794, 0);animation-play-state:paused" ></circle>
<circle cx="2396.655093008412" cy="708.5666219417072" r="63.337311097315244" fill="#ffc400" transform="matrix(1,0,0,1,-6.180027961730957,0)" style="transform:matrix(1, 0, 0, 1, -6.18003, 0);animation-play-state:paused" ></circle>
<circle cx="2459.9924041057275" cy="696.4169358453175" r="74.97854137752715" fill="#ffc400" transform="matrix(1,0,0,1,-6.553539276123047,0)" style="transform:matrix(1, 0, 0, 1, -6.55354, 0);animation-play-state:paused" ></circle>
<circle cx="2534.9709454832546" cy="702.8068550741847" r="61.82920538642749" fill="#ffc400" transform="matrix(1,0,0,1,-6.911349773406982,0)" style="transform:matrix(1, 0, 0, 1, -6.91135, 0);animation-play-state:paused" ></circle>
<circle cx="2596.800150869682" cy="685.9767513422381" r="77.52466185820683" fill="#ffc400" transform="matrix(1,0,0,1,-7.25095272064209,0)" style="transform:matrix(1, 0, 0, 1, -7.25095, 0);animation-play-state:paused" ></circle>
<circle cx="2674.324812727889" cy="663.8192917557377" r="95.99208335168544" fill="#ffc400" transform="matrix(1,0,0,1,-7.570518970489502,0)" style="transform:matrix(1, 0, 0, 1, -7.57052, 0);animation-play-state:paused" ></circle>
<circle cx="2770.3168960795742" cy="662.8824655912094" r="89.66024018297678" fill="#ffc400" transform="matrix(1,0,0,1,-7.868854999542236,0)" style="transform:matrix(1, 0, 0, 1, -7.86885, 0);animation-play-state:paused" ></circle>
<circle cx="2859.977136262551" cy="623.4289538126606" r="120.01217033891736" fill="#ffc400" transform="matrix(1,0,0,1,-8.145320892333984,0)" style="transform:matrix(1, 0, 0, 1, -8.14532, 0);animation-play-state:paused" ></circle>
<circle cx="2979.9893066014683" cy="660.4496588355205" r="79.0126833579132" fill="#ffc400" transform="matrix(1,0,0,1,-8.399731636047363,0)" style="transform:matrix(1, 0, 0, 1, -8.39973, 0);animation-play-state:paused" ></circle>
<circle cx="3059.0019899593817" cy="653.3189388302787" r="80.72557140573667" fill="#ffc400" transform="matrix(1,0,0,1,-8.632265090942383,0)" style="transform:matrix(1, 0, 0, 1, -8.63227, 0);animation-play-state:paused" ></circle>
<circle cx="0" cy="773.8421230958531" r="57.631564086789055" fill="#ffd700" transform="matrix(1,0,0,1,0,0)" style="transform:matrix(1, 0, 0, 1, 0, 0);animation-play-state:paused" ></circle>
<circle cx="57.631564086789055" cy="781.6736342298982" r="53.14727867300606" fill="#ffd700" transform="matrix(1,0,0,1,-0.022117622196674347,0)" style="transform:matrix(1, 0, 0, 1, -0.0221176, 0);animation-play-state:paused" ></circle>
<circle cx="110.77884275979511" cy="773.4387912350932" r="62.590114254284344" fill="#ffd700" transform="matrix(1,0,0,1,-0.09182155132293701,0)" style="transform:matrix(1, 0, 0, 1, -0.0918216, 0);animation-play-state:paused" ></circle>
<circle cx="173.36895701407946" cy="743.0924228840913" r="94.13655142111068" fill="#ffd700" transform="matrix(1,0,0,1,-0.21463686227798462,0)" style="transform:matrix(1, 0, 0, 1, -0.214637, 0);animation-play-state:paused" ></circle>
<circle cx="267.5055084351901" cy="792.1100937693462" r="51.612711637804665" fill="#ffd700" transform="matrix(1,0,0,1,-0.39675426483154297,0)" style="transform:matrix(1, 0, 0, 1, -0.396754, 0);animation-play-state:paused" ></circle>
<circle cx="319.11822007299475" cy="775.33227195692" r="71.62838947271979" fill="#ffd700" transform="matrix(1,0,0,1,-0.6449491381645203,0)" style="transform:matrix(1, 0, 0, 1, -0.644949, 0);animation-play-state:paused" ></circle>
<circle cx="390.74660954571453" cy="747.8205793414193" r="107.25617505167243" fill="#ffd700" transform="matrix(1,0,0,1,-0.9663241505622864,0)" style="transform:matrix(1, 0, 0, 1, -0.966324, 0);animation-play-state:paused" ></circle>
<circle cx="498.00278459738695" cy="790.1294986413922" r="65.9563975651418" fill="#ffd700" transform="matrix(1,0,0,1,-1.3677312135696411,0)" style="transform:matrix(1, 0, 0, 1, -1.36773, 0);animation-play-state:paused" ></circle>
<circle cx="563.9591821625288" cy="774.0591155219139" r="92.06447406503025" fill="#ffd700" transform="matrix(1,0,0,1,-1.854675054550171,0)" style="transform:matrix(1, 0, 0, 1, -1.85468, 0);animation-play-state:paused" ></circle>
<circle cx="656.0236562275591" cy="785.546779374603" r="85.0930554057211" fill="#ffd700" transform="matrix(1,0,0,1,-2.429475784301758,0)" style="transform:matrix(1, 0, 0, 1, -2.42948, 0);animation-play-state:paused" ></circle>
<circle cx="741.1167116332801" cy="773.0655813153244" r="115.19297459295346" fill="#ffd700" transform="matrix(1,0,0,1,-3.088643789291382,0)" style="transform:matrix(1, 0, 0, 1, -3.08864, 0);animation-play-state:paused" ></circle>
<circle cx="856.3096862262336" cy="797.1457499960864" r="89.0456346451055" fill="#ffd700" transform="matrix(1,0,0,1,-3.8199660778045654,0)" style="transform:matrix(1, 0, 0, 1, -3.81997, 0);animation-play-state:paused" ></circle>
<circle cx="945.355320871339" cy="796.0980652186807" r="105.70266096981582" fill="#ffd700" transform="matrix(1,0,0,1,-4.6007490158081055,0)" style="transform:matrix(1, 0, 0, 1, -4.60075, 0);animation-play-state:paused" ></circle>
<circle cx="1051.0579818411547" cy="814.4226279133969" r="79.56866068084264" fill="#ffd700" transform="matrix(1,0,0,1,-5.39923620223999,0)" style="transform:matrix(1, 0, 0, 1, -5.39924, 0);animation-play-state:paused" ></circle>
<circle cx="1130.6266425219974" cy="824.0474011158486" r="64.13767567575582" fill="#ffd700" transform="matrix(1,0,0,1,-6.180028915405273,0)" style="transform:matrix(1, 0, 0, 1, -6.18003, 0);animation-play-state:paused" ></circle>
<circle cx="1194.7643181977533" cy="812.896853610091" r="123.27829028771617" fill="#ffd700" transform="matrix(1,0,0,1,-6.911351203918457,0)" style="transform:matrix(1, 0, 0, 1, -6.91135, 0);animation-play-state:paused" ></circle>
<circle cx="1318.0426084854694" cy="826.2308335463026" r="115.19981624625419" fill="#ffd700" transform="matrix(1,0,0,1,-7.570520401000977,0)" style="transform:matrix(1, 0, 0, 1, -7.57052, 0);animation-play-state:paused" ></circle>
<circle cx="1433.2424247317235" cy="840.3782357732442" r="49.091137152221805" fill="#ffd700" transform="matrix(1,0,0,1,-8.1453218460083,0)" style="transform:matrix(1, 0, 0, 1, -8.14532, 0);animation-play-state:paused" ></circle>
<circle cx="1482.3335618839453" cy="841.7786739944843" r="86.41569380684936" fill="#ffd700" transform="matrix(1,0,0,1,-8.6322660446167,0)" style="transform:matrix(1, 0, 0, 1, -8.63227, 0);animation-play-state:paused" ></circle>
<circle cx="1568.7492556907946" cy="839.5636891664776" r="62.47905520929231" fill="#ffd700" transform="matrix(1,0,0,1,-9.033673286437988,0)" style="transform:matrix(1, 0, 0, 1, -9.03367, 0);animation-play-state:paused" ></circle>
<circle cx="1631.2283109000869" cy="830.3327788896918" r="120.66014017311264" fill="#ffd700" transform="matrix(1,0,0,1,-9.355049133300781,0)" style="transform:matrix(1, 0, 0, 1, -9.35505, 0);animation-play-state:paused" ></circle>
<circle cx="1751.8884510731996" cy="818.9932650574385" r="119.13376159306873" fill="#ffd700" transform="matrix(1,0,0,1,-9.603243827819824,0)" style="transform:matrix(1, 0, 0, 1, -9.60324, 0);animation-play-state:paused" ></circle>
<circle cx="1871.0222126662684" cy="808.223811027291" r="117.16343316346747" fill="#ffd700" transform="matrix(1,0,0,1,-9.785362243652344,0)" style="transform:matrix(1, 0, 0, 1, -9.78536, 0);animation-play-state:paused" ></circle>
<circle cx="1988.185645829736" cy="807.4904637476639" r="90.92221513391432" fill="#ffd700" transform="matrix(1,0,0,1,-9.908178329467773,0)" style="transform:matrix(1, 0, 0, 1, -9.90818, 0);animation-play-state:paused" ></circle>
<circle cx="2079.10786096365" cy="805.7835116183343" r="80.3315126817147" fill="#ffd700" transform="matrix(1,0,0,1,-9.977882385253906,0)" style="transform:matrix(1, 0, 0, 1, -9.97788, 0);animation-play-state:paused" ></circle>
<circle cx="2159.439373645365" cy="815.0900003370681" r="52.90478696442946" fill="#ffd700" transform="matrix(1,0,0,1,-10,0)" style="transform:matrix(1, 0, 0, 1, -10, 0);animation-play-state:paused" ></circle>
<circle cx="2212.3441606097945" cy="788.3935998533217" r="95.8216603122238" fill="#ffd700" transform="matrix(1,0,0,1,-9.977882385253906,0)" style="transform:matrix(1, 0, 0, 1, -9.97788, 0);animation-play-state:paused" ></circle>
<circle cx="2308.165820922018" cy="794.5432973991901" r="74.94857699117779" fill="#ffd700" transform="matrix(1,0,0,1,-9.908178329467773,0)" style="transform:matrix(1, 0, 0, 1, -9.90818, 0);animation-play-state:paused" ></circle>
<circle cx="2383.1143979131957" cy="779.3432264051723" r="90.10267206781045" fill="#ffd700" transform="matrix(1,0,0,1,-9.785362243652344,0)" style="transform:matrix(1, 0, 0, 1, -9.78536, 0);animation-play-state:paused" ></circle>
<circle cx="2473.2170699810063" cy="781.5031145135474" r="78.98659942284615" fill="#ffd700" transform="matrix(1,0,0,1,-9.60324478149414,0)" style="transform:matrix(1, 0, 0, 1, -9.60324, 0);animation-play-state:paused" ></circle>
<circle cx="2552.2036694038525" cy="785.9565968083485" r="67.76658936188956" fill="#ffd700" transform="matrix(1,0,0,1,-9.355049133300781,0)" style="transform:matrix(1, 0, 0, 1, -9.35505, 0);animation-play-state:paused" ></circle>
<circle cx="2619.970258765742" cy="753.9991596470085" r="99.33393281696881" fill="#ffd700" transform="matrix(1,0,0,1,-9.033673286437988,0)" style="transform:matrix(1, 0, 0, 1, -9.03367, 0);animation-play-state:paused" ></circle>
<circle cx="2719.3041915827107" cy="772.7034697657277" r="72.06623531637361" fill="#ffd700" transform="matrix(1,0,0,1,-8.632265090942383,0)" style="transform:matrix(1, 0, 0, 1, -8.63227, 0);animation-play-state:paused" ></circle>
<circle cx="2791.370426899084" cy="788.2207433258471" r="53.02434484822071" fill="#ffd700" transform="matrix(1,0,0,1,-8.145320892333984,0)" style="transform:matrix(1, 0, 0, 1, -8.14532, 0);animation-play-state:paused" ></circle>
<circle cx="2844.3947717473047" cy="708.9115438406981" r="124.67362542721335" fill="#ffd700" transform="matrix(1,0,0,1,-7.57051944732666,0)" style="transform:matrix(1, 0, 0, 1, -7.57052, 0);animation-play-state:paused" ></circle>
<circle cx="2969.068397174518" cy="687.15193957902" r="132.60790028626727" fill="#ffd700" transform="matrix(1,0,0,1,-6.911350727081299,0)" style="transform:matrix(1, 0, 0, 1, -6.91135, 0);animation-play-state:paused" ></circle>
<circle cx="0" cy="826.8624490684024" r="87.61462577633134" fill="#ffeb00" transform="matrix(1,0,0,1,0,0)" style="transform:matrix(1, 0, 0, 1, 0, 0);animation-play-state:paused" ></circle>
<circle cx="87.61462577633134" cy="860.644641244904" r="63.151459985130806" fill="#ffeb00" transform="matrix(1,0,0,1,-0.05069176107645035,0)" style="transform:matrix(1, 0, 0, 1, -0.0506918, 0);animation-play-state:paused" ></circle>
<circle cx="150.76608576146214" cy="790.6889168051284" r="130.91788764684182" fill="#ffeb00" transform="matrix(1,0,0,1,-0.21463686227798462,0)" style="transform:matrix(1, 0, 0, 1, -0.214637, 0);animation-play-state:paused" ></circle>
<circle cx="281.6839734083039" cy="876.2455441734659" r="57.204426652859304" fill="#ffeb00" transform="matrix(1,0,0,1,-0.5121510028839111,0)" style="transform:matrix(1, 0, 0, 1, -0.512151, 0);animation-play-state:paused" ></circle>
<circle cx="338.8884000611632" cy="881.1414983242213" r="54.751952437708965" fill="#ffeb00" transform="matrix(1,0,0,1,-0.9663241505622864,0)" style="transform:matrix(1, 0, 0, 1, -0.966324, 0);animation-play-state:paused" ></circle>
<circle cx="393.6403524988722" cy="824.004685351435" r="122.01651028723795" fill="#ffeb00" transform="matrix(1,0,0,1,-1.6002641916275024,0)" style="transform:matrix(1, 0, 0, 1, -1.60026, 0);animation-play-state:paused" ></circle>
<circle cx="515.6568627861101" cy="869.38489962414" r="79.51381231890262" fill="#ffeb00" transform="matrix(1,0,0,1,-2.429475784301758,0)" style="transform:matrix(1, 0, 0, 1, -2.42948, 0);animation-play-state:paused" ></circle>
<circle cx="595.1706751050127" cy="851.0208649121557" r="111.87073194334538" fill="#ffeb00" transform="matrix(1,0,0,1,-3.4464547634124756,0)" style="transform:matrix(1, 0, 0, 1, -3.44645, 0);animation-play-state:paused" ></circle>
<circle cx="707.0414070483581" cy="877.9607382604964" r="85.18613427586486" fill="#ffeb00" transform="matrix(1,0,0,1,-4.6007490158081055,0)" style="transform:matrix(1, 0, 0, 1, -4.60075, 0);animation-play-state:paused" ></circle>
<circle cx="792.227541324223" cy="878.9491471997555" r="93.69334054672939" fill="#ffeb00" transform="matrix(1,0,0,1,-5.79399299621582,0)" style="transform:matrix(1, 0, 0, 1, -5.79399, 0);animation-play-state:paused" ></circle>
<circle cx="885.9208818709524" cy="881.92651824267" r="101.92799323215053" fill="#ffeb00" transform="matrix(1,0,0,1,-6.911342620849609,0)" style="transform:matrix(1, 0, 0, 1, -6.91134, 0);animation-play-state:paused" ></circle>
<circle cx="987.848875103103" cy="908.0773282609916" r="58.38772623955545" fill="#ffeb00" transform="matrix(1,0,0,1,-7.86884880065918,0)" style="transform:matrix(1, 0, 0, 1, -7.86885, 0);animation-play-state:paused" ></circle>
<circle cx="1046.2366013426583" cy="910.318398476749" r="59.72716614926823" fill="#ffeb00" transform="matrix(1,0,0,1,-8.6322603225708,0)" style="transform:matrix(1, 0, 0, 1, -8.63226, 0);animation-play-state:paused" ></circle>
<circle cx="1105.9637674919265" cy="913.2202038441927" r="59.57509299421621" fill="#ffeb00" transform="matrix(1,0,0,1,-9.203948020935059,0)" style="transform:matrix(1, 0, 0, 1, -9.20395, 0);animation-play-state:paused" ></circle>
<circle cx="1165.5388604861428" cy="903.7653527920749" r="105.52289889703081" fill="#ffeb00" transform="matrix(1,0,0,1,-9.603245735168457,0)" style="transform:matrix(1, 0, 0, 1, -9.60325, 0);animation-play-state:paused" ></circle>
<circle cx="1271.0617593831735" cy="910.3724444610924" r="118.08618931811392" fill="#ffeb00" transform="matrix(1,0,0,1,-9.853781700134277,0)" style="transform:matrix(1, 0, 0, 1, -9.85378, 0);animation-play-state:paused" ></circle>
<circle cx="1389.1479487012873" cy="925.3880941935901" r="74.5577746300881" fill="#ffeb00" transform="matrix(1,0,0,1,-9.977882385253906,0)" style="transform:matrix(1, 0, 0, 1, -9.97788, 0);animation-play-state:paused" ></circle>
<circle cx="1463.7057233313753" cy="928.6755198150404" r="114.49739773411618" fill="#ffeb00" transform="matrix(1,0,0,1,-9.9945707321167,0)" style="transform:matrix(1, 0, 0, 1, -9.99457, 0);animation-play-state:paused" ></circle>
<circle cx="1578.2031210654916" cy="926.6615154749724" r="85.33042627155581" fill="#ffeb00" transform="matrix(1,0,0,1,-9.908178329467773,0)" style="transform:matrix(1, 0, 0, 1, -9.90818, 0);animation-play-state:paused" ></circle>
<circle cx="1663.5335473370474" cy="920.3415120530325" r="89.11388623934027" fill="#ffeb00" transform="matrix(1,0,0,1,-9.702129364013672,0)" style="transform:matrix(1, 0, 0, 1, -9.70213, 0);animation-play-state:paused" ></circle>
<circle cx="1752.6474335763876" cy="908.3741470042589" r="116.89141594128745" fill="#ffeb00" transform="matrix(1,0,0,1,-9.355051040649414,0)" style="transform:matrix(1, 0, 0, 1, -9.35505, 0);animation-play-state:paused" ></circle>
<circle cx="1869.538849517675" cy="892.553074759748" r="133.4329438289724" fill="#ffeb00" transform="matrix(1,0,0,1,-8.84337043762207,0)" style="transform:matrix(1, 0, 0, 1, -8.84337, 0);animation-play-state:paused" ></circle>
<circle cx="2002.9717933466475" cy="888.4227203646377" r="108.29951155265094" fill="#ffeb00" transform="matrix(1,0,0,1,-8.145325660705566,0)" style="transform:matrix(1, 0, 0, 1, -8.14533, 0);animation-play-state:paused" ></circle>
<circle cx="2111.2713048992982" cy="878.5877393844312" r="109.22371986766174" fill="#ffeb00" transform="matrix(1,0,0,1,-7.250957489013672,0)" style="transform:matrix(1, 0, 0, 1, -7.25096, 0);animation-play-state:paused" ></circle>
<circle cx="2220.49502476696" cy="898.0881087416612" r="58.834360565687724" fill="#ffeb00" transform="matrix(1,0,0,1,-6.1800336837768555,0)" style="transform:matrix(1, 0, 0, 1, -6.18003, 0);animation-play-state:paused" ></circle>
<circle cx="2279.3293853326477" cy="880.2568738504199" r="82.99303080861978" fill="#ffeb00" transform="matrix(1,0,0,1,-5.000007152557373,0)" style="transform:matrix(1, 0, 0, 1, -5.00001, 0);animation-play-state:paused" ></circle>
<circle cx="2362.3224161412672" cy="842.7405136201021" r="129.38821476327485" fill="#ffeb00" transform="matrix(1,0,0,1,-3.8199801445007324,0)" style="transform:matrix(1, 0, 0, 1, -3.81998, 0);animation-play-state:paused" ></circle>
<circle cx="2491.710630904542" cy="854.6770599255487" r="97.46157001957918" fill="#ffeb00" transform="matrix(1,0,0,1,-2.749042510986328,0)" style="transform:matrix(1, 0, 0, 1, -2.74904, 0);animation-play-state:paused" ></circle>
<circle cx="2589.172200924121" cy="838.3072617776724" r="107.5274623044374" fill="#ffeb00" transform="matrix(1,0,0,1,-1.8546743392944336,0)" style="transform:matrix(1, 0, 0, 1, -1.85467, 0);animation-play-state:paused" ></circle>
<circle cx="2696.6996632285586" cy="859.9158241995777" r="75.29476485974293" fill="#ffeb00" transform="matrix(1,0,0,1,-1.1566295623779297,0)" style="transform:matrix(1, 0, 0, 1, -1.15663, 0);animation-play-state:paused" ></circle>
<circle cx="2771.9944280883014" cy="804.2344180728315" r="125.55634984108103" fill="#ffeb00" transform="matrix(1,0,0,1,-0.6449489593505859,0)" style="transform:matrix(1, 0, 0, 1, -0.644949, 0);animation-play-state:paused" ></circle>
<circle cx="2897.5507779293825" cy="855.8248510389448" r="68.13272025965014" fill="#ffeb00" transform="matrix(1,0,0,1,-0.29787158966064453,0)" style="transform:matrix(1, 0, 0, 1, -0.297872, 0);animation-play-state:paused" ></circle>
<circle cx="2965.683498189033" cy="837.9461068788829" r="80.21333838216782" fill="#ffeb00" transform="matrix(1,0,0,1,-0.09182167053222656,0)" style="transform:matrix(1, 0, 0, 1, -0.0918217, 0);animation-play-state:paused" ></circle>
<circle cx="3045.8968365712008" cy="873.0877061854327" r="47.63601653493479" fill="#ffeb00" transform="matrix(1,0,0,1,-0.0054302215576171875,0)" style="transform:matrix(1, 0, 0, 1, -0.00543022, 0);animation-play-state:paused" ></circle>
<circle cx="0" cy="920.4623117118653" r="83.781406906779" fill="#ffff00" transform="matrix(1,0,0,1,0,0)" style="transform:matrix(1, 0, 0, 1, 0, 0);animation-play-state:paused" ></circle>
<circle cx="83.781406906779" cy="969.4810581423754" r="45.47227217330547" fill="#ffff00" transform="matrix(1,0,0,1,-0.09182161092758179,0)" style="transform:matrix(1, 0, 0, 1, -0.0918216, 0);animation-play-state:paused" ></circle>
<circle cx="129.25367908008445" cy="900.3178460614946" r="110.05150268934788" fill="#ffff00" transform="matrix(1,0,0,1,-0.3967544734477997,0)" style="transform:matrix(1, 0, 0, 1, -0.396754, 0);animation-play-state:paused" ></circle>
<circle cx="239.30518176943235" cy="916.2332698855737" r="103.87796534837659" fill="#ffff00" transform="matrix(1,0,0,1,-0.9663246870040894,0)" style="transform:matrix(1, 0, 0, 1, -0.966325, 0);animation-play-state:paused" ></circle>
<circle cx="343.18314711780897" cy="899.0751517134329" r="131.7460581409162" fill="#ffff00" transform="matrix(1,0,0,1,-1.8546761274337769,0)" style="transform:matrix(1, 0, 0, 1, -1.85468, 0);animation-play-state:paused" ></circle>
<circle cx="474.9292052587252" cy="939.3676436878734" r="99.54477867639663" fill="#ffff00" transform="matrix(1,0,0,1,-3.0886459350585938,0)" style="transform:matrix(1, 0, 0, 1, -3.08865, 0);animation-play-state:paused" ></circle>
<circle cx="574.4739839351219" cy="964.4623694147924" r="76.35878084982488" fill="#ffff00" transform="matrix(1,0,0,1,-4.600750923156738,0)" style="transform:matrix(1, 0, 0, 1, -4.60075, 0);animation-play-state:paused" ></circle>
<circle cx="650.8327647849467" cy="932.3115932655184" r="130.55203241564823" fill="#ffff00" transform="matrix(1,0,0,1,-6.180022239685059,0)" style="transform:matrix(1, 0, 0, 1, -6.18002, 0);animation-play-state:paused" ></circle>
<circle cx="781.3847972005949" cy="973.575721683427" r="82.49247673133873" fill="#ffff00" transform="matrix(1,0,0,1,-7.570515155792236,0)" style="transform:matrix(1, 0, 0, 1, -7.57052, 0);animation-play-state:paused" ></circle>
<circle cx="863.8772739319336" cy="988.016298061545" r="64.8139513548164" fill="#ffff00" transform="matrix(1,0,0,1,-8.632262229919434,0)" style="transform:matrix(1, 0, 0, 1, -8.63226, 0);animation-play-state:paused" ></circle>
<circle cx="928.69122528675" cy="960.536497961953" r="132.2916448911419" fill="#ffff00" transform="matrix(1,0,0,1,-9.355047225952148,0)" style="transform:matrix(1, 0, 0, 1, -9.35505, 0);animation-play-state:paused" ></circle>
<circle cx="1060.982870177892" cy="995.5237002015517" r="72.53788653067888" fill="#ffff00" transform="matrix(1,0,0,1,-9.785360336303711,0)" style="transform:matrix(1, 0, 0, 1, -9.78536, 0);animation-play-state:paused" ></circle>
<circle cx="1133.5207567085708" cy="1005.2328260220785" r="53.77921896855991" fill="#ffff00" transform="matrix(1,0,0,1,-9.977882385253906,0)" style="transform:matrix(1, 0, 0, 1, -9.97788, 0);animation-play-state:paused" ></circle>
<circle cx="1187.2999756771308" cy="996.5503240175282" r="97.73614518985076" fill="#ffff00" transform="matrix(1,0,0,1,-9.977883338928223,0)" style="transform:matrix(1, 0, 0, 1, -9.97788, 0);animation-play-state:paused" ></circle>
<circle cx="1285.0361208669815" cy="1008.45813108287" r="72.9300950915176" fill="#ffff00" transform="matrix(1,0,0,1,-9.785361289978027,0)" style="transform:matrix(1, 0, 0, 1, -9.78536, 0);animation-play-state:paused" ></circle>
<circle cx="1357.966215958499" cy="1014.4142344169841" r="57.9594991031472" fill="#ffff00" transform="matrix(1,0,0,1,-9.355047225952148,0)" style="transform:matrix(1, 0, 0, 1, -9.35505, 0);animation-play-state:paused" ></circle>
<circle cx="1415.9257150616463" cy="1015.9113887075466" r="75.65647593947007" fill="#ffff00" transform="matrix(1,0,0,1,-8.63226318359375,0)" style="transform:matrix(1, 0, 0, 1, -8.63226, 0);animation-play-state:paused" ></circle>
<circle cx="1491.5821910011164" cy="1020.1177974991871" r="131.00239339741896" fill="#ffff00" transform="matrix(1,0,0,1,-7.57051420211792,0)" style="transform:matrix(1, 0, 0, 1, -7.57051, 0);animation-play-state:paused" ></circle>
<circle cx="1622.5845843985353" cy="1010.4189709760394" r="107.89518392419264" fill="#ffff00" transform="matrix(1,0,0,1,-6.180022239685059,0)" style="transform:matrix(1, 0, 0, 1, -6.18002, 0);animation-play-state:paused" ></circle>
<circle cx="1730.479768322728" cy="1006.6326082428876" r="77.92111137166363" fill="#ffff00" transform="matrix(1,0,0,1,-4.600751876831055,0)" style="transform:matrix(1, 0, 0, 1, -4.60075, 0);animation-play-state:paused" ></circle>
<circle cx="1808.4008796943915" cy="1006.1608267373317" r="60.14563446354758" fill="#ffff00" transform="matrix(1,0,0,1,-3.0886449813842773,0)" style="transform:matrix(1, 0, 0, 1, -3.08864, 0);animation-play-state:paused" ></circle>
<circle cx="1868.546514157939" cy="994.9977903576035" r="88.19175003529323" fill="#ffff00" transform="matrix(1,0,0,1,-1.8546762466430664,0)" style="transform:matrix(1, 0, 0, 1, -1.85468, 0);animation-play-state:paused" ></circle>
<circle cx="1956.7382641932322" cy="973.910015583508" r="128.87573723341941" fill="#ffff00" transform="matrix(1,0,0,1,-0.9663248062133789,0)" style="transform:matrix(1, 0, 0, 1, -0.966325, 0);animation-play-state:paused" ></circle>
<circle cx="2085.6140014266516" cy="963.0648819134456" r="123.66319355713617" fill="#ffff00" transform="matrix(1,0,0,1,-0.3967552185058594,0)" style="transform:matrix(1, 0, 0, 1, -0.396755, 0);animation-play-state:paused" ></circle>
<circle cx="2209.277194983788" cy="992.1090864148134" r="50.916118883969915" fill="#ffff00" transform="matrix(1,0,0,1,-0.09182167053222656,0)" style="transform:matrix(1, 0, 0, 1, -0.0918217, 0);animation-play-state:paused" ></circle>
<circle cx="2260.1933138677578" cy="988.467689781792" r="53.49348255361531" fill="#ffff00" transform="matrix(1,0,0,1,0,0)" style="transform:matrix(1, 0, 0, 1, 0, 0);animation-play-state:paused" ></circle>
<circle cx="2313.686796421373" cy="982.1419652567088" r="59.69439794616068" fill="#ffff00" transform="matrix(1,0,0,1,-0.09182161092758179,0)" style="transform:matrix(1, 0, 0, 1, -0.0918216, 0);animation-play-state:paused" ></circle>
<circle cx="2373.3811943675337" cy="934.3508073820694" r="124.01399465767969" fill="#ffff00" transform="matrix(1,0,0,1,-0.3967599868774414,0)" style="transform:matrix(1, 0, 0, 1, -0.39676, 0);animation-play-state:paused" ></circle>
<circle cx="2497.3951890252133" cy="929.6949523169594" r="114.4293764995448" fill="#ffff00" transform="matrix(1,0,0,1,-0.9663340449333191,0)" style="transform:matrix(1, 0, 0, 1, -0.966334, 0);animation-play-state:paused" ></circle>
<circle cx="2611.8245655247583" cy="919.7180374022635" r="113.86909155709913" fill="#ffff00" transform="matrix(1,0,0,1,-1.8546900749206543,0)" style="transform:matrix(1, 0, 0, 1, -1.85469, 0);animation-play-state:paused" ></circle>
<circle cx="2725.6936570818575" cy="917.5454811160221" r="105.50609269925917" fill="#ffff00" transform="matrix(1,0,0,1,-3.0886640548706055,0)" style="transform:matrix(1, 0, 0, 1, -3.08866, 0);animation-play-state:paused" ></circle>
<circle cx="2831.1997497811167" cy="886.4685083000671" r="126.32541784399118" fill="#ffff00" transform="matrix(1,0,0,1,-4.600771903991699,0)" style="transform:matrix(1, 0, 0, 1, -4.60077, 0);animation-play-state:paused" ></circle>
<circle cx="2957.5251676251078" cy="888.7266738422134" r="113.44000183999638" fill="#ffff00" transform="matrix(1,0,0,1,-6.180042743682861,0)" style="transform:matrix(1, 0, 0, 1, -6.18004, 0);animation-play-state:paused" ></circle></g></svg>